<svg width="642" height="98" viewBox="0 0 642 98" fill="none" xmlns="http://www.w3.org/2000/svg">
<path d="M54.4607 54.9327C56.1673 51.8298 57.0207 48.5717 57.0207 45.236C57.0207 39.2629 54.8486 33.8327 50.8536 29.9153C46.2379 25.3772 39.5278 23.0888 31.5378 23.2052C17.1091 23.4767 1.16777 34.4145 0.00416996 54.0406C-0.0346168 54.7 0.198104 55.3594 0.663545 55.8636C1.0902 56.329 1.672 56.6005 2.33137 56.6005H8.49846C8.57604 54.0018 8.88633 52.1788 8.9639 51.8298C11.0584 39.3404 20.1733 31.2728 32.1971 31.2728C35.8431 31.2728 39.4115 32.2037 42.7471 34.0654C48.6039 37.2847 52.5214 44.1888 52.2499 50.8213V51.4031C52.0947 55.3206 50.6984 58.6562 48.1773 61.1774C50.8536 59.6647 53.0644 57.4538 54.4607 54.9327Z" fill="white"/>
<path d="M48.216 41.7838C46.6646 39.1463 44.4925 36.9355 41.9326 35.5392C38.8296 33.8326 35.5716 32.9792 32.2359 32.9792C26.2627 32.9792 20.8326 35.1513 16.9151 39.1463C12.3771 43.762 10.0499 50.4721 10.205 58.4621C10.4765 72.8908 21.4144 88.8321 41.0405 89.9957C41.6999 90.0345 42.3592 89.8018 42.8635 89.3364C43.3289 88.9097 43.6004 88.3279 43.6004 87.6685V81.5014C41.0017 81.4239 39.1787 81.1136 38.8296 81.036C26.3403 78.9415 18.2727 69.8266 18.2727 57.764C18.2727 54.118 19.2036 50.5884 21.0653 47.214C24.2846 41.3572 31.1887 37.4397 37.8212 37.7112H38.403C42.3204 37.8664 45.6949 39.2627 48.216 41.7838Z" fill="white"/>
<path d="M22.5392 48.0674C20.8326 51.1703 19.9792 54.4284 19.9792 57.7641C19.9792 63.7372 22.1513 69.1674 26.1463 73.0848C30.762 77.6229 37.4333 79.9113 45.4621 79.7949C59.8908 79.5234 75.8321 68.5856 76.9957 48.9595C77.0345 48.3001 76.8018 47.6407 76.3364 47.1365C75.9097 46.6711 75.3279 46.3996 74.6685 46.3996H68.5014C68.4239 48.9983 68.1136 50.8212 68.036 51.1703C65.9415 63.6597 56.8266 71.7273 44.8028 71.7273C41.1568 71.7273 37.5884 70.7964 34.2528 68.9346C28.396 65.7153 24.4785 58.8113 24.75 52.14C24.75 47.9898 26.1851 44.4214 28.8226 41.7839C26.1076 43.3354 23.9355 45.5075 22.5392 48.0674Z" fill="white"/>
<path d="M66.7561 44.5378C66.4846 30.1091 55.5468 14.1678 35.9207 13.0042C35.2613 12.9654 34.6019 13.1981 34.0977 13.6635C33.6323 14.0902 33.3608 14.672 33.3608 15.3314V21.4985C35.9595 21.576 37.7825 21.8863 38.1315 21.9639C50.6209 24.0584 58.6885 33.1733 58.6885 45.2359C58.6885 48.8819 57.7576 52.4115 55.8959 55.7859C52.6378 61.6815 45.8501 65.5602 39.14 65.2887H38.5582C34.6407 65.1335 31.3051 63.7372 28.7839 61.2161C30.3354 63.8536 32.5075 66.0644 35.0674 67.4607C38.1703 69.1673 41.4284 70.0207 44.7641 70.0207C50.7372 70.0207 56.1674 67.8486 60.0848 63.8536C64.6229 59.1992 66.9113 52.5278 66.7561 44.5378Z" fill="white"/>
<path d="M119.739 80.8453C113.033 80.8453 107.567 78.7884 103.34 74.6747C99.1421 70.561 97.043 65.0807 97.043 58.2339V57.0505C97.043 52.4578 97.9306 48.3582 99.7057 44.7516C101.481 41.1169 103.988 38.3275 107.229 36.3833C110.497 34.411 114.216 33.4248 118.386 33.4248C124.642 33.4248 129.558 35.3971 133.137 39.3418C136.743 43.2865 138.546 48.8794 138.546 56.1207V61.1079H109.426C109.821 64.0946 111.004 66.4895 112.977 68.2928C114.977 70.0961 117.499 70.9977 120.542 70.9977C125.247 70.9977 128.924 69.2931 131.573 65.8837L137.574 72.6038C135.743 75.196 133.263 77.2246 130.136 78.6898C127.008 80.1268 123.543 80.8453 119.739 80.8453ZM118.344 43.3146C115.921 43.3146 113.949 44.1318 112.427 45.766C110.934 47.4002 109.976 49.7388 109.553 52.7818H126.543V51.8098C126.487 49.1048 125.755 47.0198 124.346 45.5547C122.937 44.0613 120.936 43.3146 118.344 43.3146ZM162.933 47.9214L170.625 34.2701H183.685L170.667 56.6701L184.234 80H171.132L162.975 65.6302L154.86 80H141.716L155.283 56.6701L142.308 34.2701H155.41L162.933 47.9214ZM185.967 56.7124C185.967 52.176 186.84 48.1328 188.587 44.5826C190.334 41.0324 192.842 38.2852 196.11 36.341C199.407 34.3969 203.225 33.4248 207.564 33.4248C213.735 33.4248 218.764 35.3126 222.652 39.0882C226.569 42.8638 228.752 47.9919 229.203 54.4724L229.288 57.6C229.288 64.6158 227.33 70.2511 223.413 74.5057C219.497 78.7321 214.242 80.8453 207.649 80.8453C201.055 80.8453 195.786 78.7321 191.842 74.5057C187.925 70.2792 185.967 64.5313 185.967 57.2618V56.7124ZM198.181 57.6C198.181 61.9391 198.998 65.2639 200.633 67.5743C202.267 69.8566 204.605 70.9977 207.649 70.9977C210.607 70.9977 212.917 69.8707 214.58 67.6166C216.242 65.3343 217.073 61.6996 217.073 56.7124C217.073 52.4578 216.242 49.1612 214.58 46.8226C212.917 44.484 210.579 43.3146 207.564 43.3146C204.577 43.3146 202.267 44.484 200.633 46.8226C198.998 49.133 198.181 52.7255 198.181 57.6ZM249.701 80H237.445V15.0821H249.701V80ZM286.302 80C285.739 78.9011 285.33 77.5346 285.077 75.9004C282.118 79.197 278.272 80.8453 273.538 80.8453C269.058 80.8453 265.339 79.5492 262.381 76.957C259.45 74.3648 257.985 71.0963 257.985 67.1517C257.985 62.3054 259.774 58.5861 263.353 55.9939C266.959 53.4017 272.158 52.0915 278.948 52.0633H284.569V49.443C284.569 47.3297 284.02 45.6392 282.921 44.3713C281.85 43.1033 280.146 42.4694 277.807 42.4694C275.75 42.4694 274.13 42.9624 272.947 43.9486C271.792 44.9348 271.214 46.2872 271.214 48.006H259C259 45.3574 259.817 42.9061 261.451 40.652C263.085 38.3979 265.396 36.6369 268.382 35.369C271.369 34.0729 274.722 33.4248 278.441 33.4248C284.076 33.4248 288.542 34.8477 291.839 37.6935C295.164 40.5111 296.826 44.484 296.826 49.612V69.4339C296.854 73.7731 297.46 77.0556 298.643 79.2815V80H286.302ZM276.201 71.5049C278.004 71.5049 279.667 71.1104 281.188 70.3215C282.71 69.5044 283.837 68.4196 284.569 67.0671V59.206H280.005C273.891 59.206 270.636 61.3192 270.242 65.5456L270.2 66.2641C270.2 67.7856 270.735 69.0395 271.806 70.0256C272.876 71.0118 274.341 71.5049 276.201 71.5049ZM333.596 75.3509C330.581 79.0138 326.411 80.8453 321.086 80.8453C316.183 80.8453 312.436 79.4365 309.843 76.6189C307.279 73.8012 305.969 69.6734 305.913 64.2354V34.2701H318.127V63.8128C318.127 68.5746 320.297 70.9555 324.636 70.9555C328.778 70.9555 331.624 69.5185 333.173 66.6445V34.2701H345.43V80H333.934L333.596 75.3509ZM365.886 34.2701L366.266 39.5531C369.535 35.4676 373.916 33.4248 379.41 33.4248C384.257 33.4248 387.863 34.8477 390.23 37.6935C392.597 40.5393 393.808 44.7939 393.865 50.4573V80H381.65V50.7532C381.65 48.1609 381.087 46.2872 379.96 45.132C378.833 43.9486 376.959 43.3569 374.339 43.3569C370.901 43.3569 368.323 44.8221 366.604 47.7524V80H354.39V34.2701H365.886ZM422.182 70.9977C424.436 70.9977 426.267 70.3778 427.676 69.1381C429.085 67.8983 429.817 66.25 429.874 64.1932H441.327C441.299 67.2926 440.454 70.1383 438.792 72.7306C437.129 75.2946 434.847 77.2951 431.945 78.7321C429.071 80.1409 425.887 80.8453 422.393 80.8453C415.856 80.8453 410.7 78.7743 406.924 74.6324C403.149 70.4624 401.261 64.7144 401.261 57.3886V56.5856C401.261 49.5416 403.135 43.9204 406.882 39.7222C410.63 35.5239 415.772 33.4248 422.309 33.4248C428.028 33.4248 432.607 35.059 436.044 38.3275C439.51 41.5677 441.271 45.8928 441.327 51.3026H429.874C429.817 48.9358 429.085 47.0198 427.676 45.5547C426.267 44.0613 424.408 43.3146 422.097 43.3146C419.251 43.3146 417.096 44.3572 415.631 46.4422C414.194 48.4991 413.475 51.852 413.475 56.5011V57.769C413.475 62.4744 414.194 65.8556 415.631 67.9124C417.068 69.9693 419.251 70.9977 422.182 70.9977ZM460.22 39.2573C463.46 35.369 467.531 33.4248 472.434 33.4248C482.352 33.4248 487.381 39.1868 487.522 50.7109V80H475.308V51.049C475.308 48.4286 474.744 46.4986 473.617 45.2588C472.49 43.9909 470.617 43.3569 467.996 43.3569C464.418 43.3569 461.826 44.7375 460.22 47.4988V80H448.005V15.0821H460.22V39.2573ZM537.901 57.5577C537.901 64.6017 536.295 70.2511 533.083 74.5057C529.899 78.7321 525.588 80.8453 520.15 80.8453C515.529 80.8453 511.796 79.2392 508.95 76.0272V97.5819H496.736V34.2701H508.063L508.485 38.7501C511.444 35.1999 515.304 33.4248 520.066 33.4248C525.701 33.4248 530.082 35.5099 533.21 39.6799C536.337 43.85 537.901 49.5979 537.901 56.9237V57.5577ZM525.687 56.6701C525.687 52.4155 524.926 49.133 523.405 46.8226C521.911 44.5121 519.728 43.3569 516.854 43.3569C513.022 43.3569 510.387 44.8221 508.95 47.7524V66.4754C510.444 69.4903 513.106 70.9977 516.938 70.9977C522.771 70.9977 525.687 66.2219 525.687 56.6701ZM572.008 80C571.445 78.9011 571.036 77.5346 570.783 75.9004C567.824 79.197 563.978 80.8453 559.245 80.8453C554.765 80.8453 551.045 79.5492 548.087 76.957C545.157 74.3648 543.691 71.0963 543.691 67.1517C543.691 62.3054 545.481 58.5861 549.059 55.9939C552.666 53.4017 557.864 52.0915 564.654 52.0633H570.276V49.443C570.276 47.3297 569.726 45.6392 568.627 44.3713C567.557 43.1033 565.852 42.4694 563.513 42.4694C561.456 42.4694 559.836 42.9624 558.653 43.9486C557.498 44.9348 556.92 46.2872 556.92 48.006H544.706C544.706 45.3574 545.523 42.9061 547.157 40.652C548.791 38.3979 551.102 36.6369 554.088 35.369C557.075 34.0729 560.428 33.4248 564.147 33.4248C569.783 33.4248 574.248 34.8477 577.545 37.6935C580.87 40.5111 582.532 44.484 582.532 49.612V69.4339C582.56 73.7731 583.166 77.0556 584.35 79.2815V80H572.008ZM561.907 71.5049C563.711 71.5049 565.373 71.1104 566.894 70.3215C568.416 69.5044 569.543 68.4196 570.276 67.0671V59.206H565.711C559.597 59.206 556.343 61.3192 555.948 65.5456L555.906 66.2641C555.906 67.7856 556.441 69.0395 557.512 70.0256C558.583 71.0118 560.048 71.5049 561.907 71.5049ZM590.013 56.7969C590.013 49.6684 591.605 43.9909 594.789 39.7645C598.001 35.538 602.382 33.4248 607.933 33.4248C612.385 33.4248 616.062 35.0872 618.964 38.412V15.0821H631.221V80H620.19L619.598 75.1396C616.555 78.9434 612.638 80.8453 607.849 80.8453C602.467 80.8453 598.142 78.7321 594.873 74.5057C591.633 70.2511 590.013 64.3481 590.013 56.7969ZM602.227 57.6845C602.227 61.9673 602.974 65.2498 604.467 67.5321C605.961 69.8143 608.13 70.9555 610.976 70.9555C614.752 70.9555 617.414 69.3635 618.964 66.1796V48.1328C617.442 44.9489 614.808 43.3569 611.061 43.3569C605.172 43.3569 602.227 48.1328 602.227 57.6845Z" fill="white"/>
</svg>
